HIERARCHY
ROOT Hips
{
	OFFSET -0.001795 -0.223333 0.028219
	CHANNELS 6 Xposition Yposition Zposition Zrotation Yrotation Xrotation 
	JOINT LeftUpLeg
	{
		OFFSET 0.069520 -0.091406 -0.006815
		CHANNELS 3 Zrotation Yrotation Xrotation
		JOINT LeftLeg
		{
			OFFSET 0.034277 -0.375199 -0.004496
			CHANNELS 3 Zrotation Yrotation Xrotation
			JOINT LeftFoot
			{
				OFFSET -0.013596 -0.397961 -0.043693
				CHANNELS 3 Zrotation Yrotation Xrotation
				JOINT LeftToe
				{
					OFFSET 0.026358 -0.055791 0.119288
					CHANNELS 3 Zrotation Yrotation Xrotation
					End Site
					{
						OFFSET 0.000000 0.000000 0.000000
					}
				}
			}
		}
	}
	JOINT RightUpLeg
	{
		OFFSET -0.067670 -0.090522 -0.004320
		CHANNELS 3 Zrotation Yrotation Xrotation
		JOINT RightLeg
		{
			OFFSET -0.038290 -0.382569 -0.008850
			CHANNELS 3 Zrotation Yrotation Xrotation
			JOINT RightFoot
			{
				OFFSET 0.015774 -0.398415 -0.042312
				CHANNELS 3 Zrotation Yrotation Xrotation
				JOINT RightToe
				{
					OFFSET -0.025372 -0.048144 0.123348
					CHANNELS 3 Zrotation Yrotation Xrotation
					End Site
					{
						OFFSET 0.000000 0.000000 0.000000
					}
				}
			}
		}
	}
	JOINT Spine
	{
		OFFSET -0.002533 0.108963 -0.026696
		CHANNELS 3 Zrotation Yrotation Xrotation
		JOINT Spine1
		{
			OFFSET 0.005487 0.135180 0.001092
			CHANNELS 3 Zrotation Yrotation Xrotation
			JOINT Spine2
			{
				OFFSET 0.001457 0.052922 0.025425
				CHANNELS 3 Zrotation Yrotation Xrotation
				JOINT Neck
				{
					OFFSET -0.002778 0.213870 -0.042857
					CHANNELS 3 Zrotation Yrotation Xrotation
					JOINT Head
					{
						OFFSET 0.005152 0.064970 0.051349
						CHANNELS 3 Zrotation Yrotation Xrotation
						End Site
						{
							OFFSET 0.000000 0.000000 0.000000
						}
					}
				}
				JOINT LeftShoulder
				{
					OFFSET 0.078845 0.121749 -0.034090
					CHANNELS 3 Zrotation Yrotation Xrotation
					JOINT LeftArm
					{
						OFFSET 0.090977 0.030469 -0.008868
						CHANNELS 3 Zrotation Yrotation Xrotation
						JOINT LeftForeArm
						{
							OFFSET 0.259612 -0.012772 -0.027456
							CHANNELS 3 Zrotation Yrotation Xrotation
							JOINT LeftHand
							{
								OFFSET 0.249234 0.008986 -0.001171
								CHANNELS 3 Zrotation Yrotation Xrotation
								End Site
								{
									OFFSET 0.000000 0.000000 0.000000
								}
							}
						}
					}
				}
				JOINT RightShoulder
				{
					OFFSET -0.081759 0.118833 -0.038615
					CHANNELS 3 Zrotation Yrotation Xrotation
					JOINT RightArm
					{
						OFFSET -0.096012 0.032551 -0.009143
						CHANNELS 3 Zrotation Yrotation Xrotation
						JOINT RightForeArm
						{
							OFFSET -0.253742 -0.013329 -0.021401
							CHANNELS 3 Zrotation Yrotation Xrotation
							JOINT RightHand
							{
								OFFSET -0.255298 0.007772 -0.005559
								CHANNELS 3 Zrotation Yrotation Xrotation
								End Site
								{
									OFFSET 0.000000 0.000000 0.000000
								}
							}
						}
					}
				}
			}
		}
	}
}
MOTION
Frames: 10
Frame Time: 0.050000
0.000000 0.972790 0.000000 -0.847776 -0.370298 3.786313 1.113907 0.128226 1.838771 -2.801240 0.376705 -7.443717 3.474883 12.206246 23.649910 0.000000 0.000000 0.000000 -0.828495 0.049342 -0.249445 0.788158 -0.192533 -3.386834 -1.571230 -9.622751 18.719621 0.000000 0.000000 0.000000 0.753460 -0.307980 6.130421 2.421277 0.197391 -27.772355 -1.562715 2.322899 27.295906 2.289692 0.480579 -24.727329 0.000000 0.000000 0.000000 -31.565573 -2.999163 -0.916222 -45.157980 -1.468041 -6.743585 -9.103656 -23.905779 3.002543 0.000000 0.000000 0.000000 28.840214 3.454542 1.365435 50.888444 1.254855 -7.092192 4.305163 20.990988 1.668433 0.000000 0.000000 0.000000 
0.000600 0.971155 0.001733 -1.185423 -1.217956 4.489620 1.401296 0.076536 1.306103 -2.903867 0.387472 -7.314722 3.972470 12.595497 22.864538 0.000000 0.000000 0.000000 -0.767236 0.183232 -1.686521 0.776598 -0.153020 -2.243923 -0.850241 -8.502135 18.327806 0.000000 0.000000 0.000000 0.469726 -0.259627 5.490367 2.714625 0.148723 -28.219641 -1.168614 2.927405 27.392378 2.191313 0.537217 -24.535154 0.000000 0.000000 0.000000 -31.636406 -2.040879 -1.596144 -45.533854 -1.507642 -6.791512 -9.473248 -24.962502 3.244278 0.000000 0.000000 0.000000 28.758317 3.343623 1.298621 51.484476 0.423590 -7.498387 4.457446 22.693719 1.873155 0.000000 0.000000 0.000000 
0.001542 0.970226 0.003551 -1.055658 -0.837732 4.969540 1.427027 0.039040 0.876708 -3.320301 0.398013 -6.511570 3.573027 11.760631 20.400339 0.000000 0.000000 0.000000 -1.026587 0.189875 -1.693411 0.823055 -0.182390 -3.024377 -0.903554 -8.594043 18.640503 0.000000 0.000000 0.000000 0.403523 -0.239448 5.127441 1.920361 0.336111 -28.773814 -0.958664 1.957983 28.066343 0.910720 1.244973 -25.644485 0.000000 0.000000 0.000000 -31.266949 -2.041191 -1.204495 -45.142950 -2.132859 -6.677092 -10.016605 -24.854585 3.378843 0.000000 0.000000 0.000000 28.180346 3.926303 1.443974 52.386897 0.025227 -7.756407 4.204254 23.442743 1.889231 0.000000 0.000000 0.000000 
0.003003 0.970778 0.005278 -1.364085 -0.937650 5.579148 1.216306 0.012312 0.488515 -2.889954 0.374284 -6.404057 4.071531 12.284380 19.469244 0.000000 0.000000 0.000000 -1.054348 0.221074 -2.013715 1.511130 -0.238949 -3.209655 -1.066367 -8.822359 18.403753 0.000000 0.000000 0.000000 0.172264 -0.202469 4.600575 2.751502 0.223232 -29.688924 -1.262473 2.232417 28.599958 1.344789 1.067484 -26.341099 0.000000 0.000000 0.000000 -31.882314 -1.600324 -1.656078 -44.560099 -1.871204 -6.676561 -10.378606 -24.884491 3.456234 0.000000 0.000000 0.000000 28.658209 4.216020 1.743707 51.762645 -0.188751 -7.832094 4.734658 23.684418 2.019584 0.000000 0.000000 0.000000 
0.005300 0.971374 0.006920 -1.726292 -0.841398 5.621813 1.244825 0.011661 0.495516 -2.598416 0.352626 -5.991228 4.099425 12.208200 18.590764 0.000000 0.000000 0.000000 -1.122360 0.202841 -1.795000 1.723440 -0.268413 -3.762444 -0.514334 -8.180893 19.568098 0.000000 0.000000 0.000000 0.008124 -0.201959 4.822918 3.218514 0.121507 -29.405436 -1.191661 2.370034 28.196894 1.312671 1.153980 -26.778721 0.000000 0.000000 0.000000 -32.256392 -1.842591 -1.645684 -44.108158 -2.059993 -6.476588 -10.745027 -24.967730 3.530351 0.000000 0.000000 0.000000 28.319075 4.415488 1.954299 51.718531 -0.097450 -7.770528 5.283627 24.055563 2.165810 0.000000 0.000000 0.000000 
0.008835 0.971948 0.008321 -1.895239 -0.663630 5.583210 1.104734 0.001186 0.324664 -2.357579 0.327853 -5.275509 3.903458 11.863321 17.961741 0.000000 0.000000 0.000000 -1.113278 0.235996 -2.162583 1.587271 -0.231920 -2.671260 -0.466183 -7.996338 19.275842 0.000000 0.000000 0.000000 -0.456915 -0.182754 5.127050 3.905527 0.027426 -29.953478 -1.475020 2.398437 28.605152 1.856075 0.899540 -27.329083 0.000000 0.000000 0.000000 -32.249250 -1.679871 -1.817469 -44.017163 -2.219313 -6.427037 -10.893088 -24.894209 3.547984 0.000000 0.000000 0.000000 28.175772 4.942339 2.391016 51.450594 0.114475 -7.711804 5.286589 24.692599 2.238361 0.000000 0.000000 0.000000 
0.013660 0.971960 0.009817 -2.071681 -0.400380 5.685263 1.069729 -0.021134 0.049464 -2.319428 0.318750 -4.919326 3.634852 11.503383 17.869332 0.000000 0.000000 0.000000 -1.140564 0.307936 -2.945413 1.485012 -0.181825 -1.059932 -0.640765 -8.098472 18.735347 0.000000 0.000000 0.000000 -0.655614 -0.186273 5.593251 4.095027 -0.003528 -29.987326 -1.443966 2.000306 28.745242 1.669030 0.999964 -27.850720 0.000000 0.000000 0.000000 -32.503337 -1.395976 -1.946306 -44.143094 -2.744585 -6.307675 -10.498215 -24.564342 3.425531 0.000000 0.000000 0.000000 27.364623 4.997122 2.342308 51.414494 0.640551 -7.479730 6.094970 25.032804 2.431837 0.000000 0.000000 0.000000 
0.019748 0.972109 0.011836 -2.263448 -0.053471 5.392990 0.910713 -0.020177 0.014905 -2.117294 0.287939 -3.890870 3.168875 10.731789 16.987920 0.000000 0.000000 0.000000 -1.048863 0.423319 -4.218230 1.684423 -0.120019 2.238951 -1.806207 -9.779799 17.914150 0.000000 0.000000 0.000000 -1.017380 -0.176500 6.049804 4.552520 -0.149724 -28.971877 -1.417828 1.963885 28.364164 2.245879 0.670112 -27.357047 0.000000 0.000000 0.000000 -33.212634 -1.459604 -2.109629 -44.001291 -2.910706 -6.157189 -9.331412 -24.499588 3.151277 0.000000 0.000000 0.000000 27.418207 5.436376 2.686992 50.761467 1.216619 -7.147899 5.582963 25.699712 2.393454 0.000000 0.000000 0.000000 
0.026299 0.971524 0.015106 -2.196120 0.284932 4.955165 0.742344 0.009008 0.312620 -2.662769 0.320705 -3.347536 3.151593 10.714957 16.772658 0.000000 0.000000 0.000000 -1.797254 0.631653 -6.724047 2.774508 -0.169028 8.350448 -2.881380 -11.254380 16.493328 0.000000 0.000000 0.000000 -1.407894 -0.179863 7.087578 5.367080 -0.310549 -28.900011 -2.052860 2.150445 28.639328 3.028866 0.281782 -27.342540 0.000000 0.000000 0.000000 -33.635486 -1.493450 -2.313827 -43.771171 -3.040670 -6.060770 -8.523604 -23.842408 2.878388 0.000000 0.000000 0.000000 27.888128 5.596717 2.970878 49.743471 2.152210 -6.752271 4.731487 26.251117 2.279662 0.000000 0.000000 0.000000 
0.032353 0.971390 0.020040 -2.674486 1.314813 4.031381 1.075045 0.068927 1.175649 -3.061352 0.340218 -2.622217 3.208078 10.774235 15.931057 0.000000 0.000000 0.000000 -1.960776 0.810571 -9.037948 3.828393 -0.371735 15.616818 -3.500416 -11.999836 15.523202 0.000000 0.000000 0.000000 -1.334741 -0.219168 7.873640 5.062254 -0.358365 -27.226961 -1.441045 0.977454 28.448036 2.603446 0.478312 -27.887382 0.000000 0.000000 0.000000 -34.823082 -2.689620 -1.356463 -43.102898 -3.636182 -5.808327 -6.616014 -22.620537 2.344464 0.000000 0.000000 0.000000 27.319650 5.906488 2.951511 49.313461 2.872912 -6.337400 4.241372 26.070592 2.121732 0.000000 0.000000 0.000000 
